<?xml version="1.0" encoding="UTF-8"?>
<svg width="66px" height="30px" viewBox="0 0 66 30" version="1.1" xmlns="http://www.w3.org/2000/svg" xmlns:xlink="http://www.w3.org/1999/xlink">
    <!-- Generator: sketchtool 63.1 (101010) - https://sketch.com -->
    <title>08B67DE1-1692-46C3-8085-892C986965AE</title>
    <desc>Created with sketchtool.</desc>
    <g id="Candidate-Screens" stroke="none" stroke-width="1" fill="none" fill-rule="evenodd">
        <g id="candidate-dashboard" transform="translate(-20.000000, -10.000000)" fill-rule="nonzero">
            <g id="header/candidate" transform="translate(0.000000, -8.000000)">
                <g id="header">
                    <g id="Group-15">
                        <g id="logo/filled" transform="translate(11.000000, 18.000000)">
                            <g id="high5-std" transform="translate(9.000000, 0.000000)">
                                <path d="M1.91100407,29.8914286 C2.24108659,29.8914286 2.51905082,29.6019048 2.51905082,29.2580952 L2.51905082,24.5352381 L8.02621708,24.5352381 L8.02621708,29.2580952 C8.02621708,29.6019048 8.28680854,29.8914286 8.61689106,29.8914286 L9.93722115,29.8914286 C10.2673037,29.8914286 10.5278951,29.6019048 10.5278951,29.2580952 L10.5278951,17.2428571 C10.5278951,16.8990476 10.2673037,16.6095238 9.93722115,16.6095238 L8.61689106,16.6095238 C8.28680854,16.6095238 8.02621708,16.8990476 8.02621708,17.2428571 L8.02621708,21.947619 L2.51905082,21.947619 L2.51905082,17.2428571 C2.51905082,16.8990476 2.24108659,16.6095238 1.91100407,16.6095238 L0.608046749,16.6095238 C0.277964228,16.6095238 0,16.8990476 0,17.2428571 L0,29.2580952 C0,29.6019048 0.277964228,29.8914286 0.608046749,29.8914286 L1.91100407,29.8914286 Z M15.2185415,29.8914286 C15.548624,29.8914286 15.8265882,29.6019048 15.8265882,29.2580952 L15.8265882,17.2428571 C15.8265882,16.8990476 15.548624,16.6095238 15.2185415,16.6095238 L13.9155842,16.6095238 C13.5855016,16.6095238 13.3075374,16.8990476 13.3075374,17.2428571 L13.3075374,29.2580952 C13.3075374,29.6019048 13.5855016,29.8914286 13.9155842,29.8914286 L15.2185415,29.8914286 Z M24.0265329,30 C27.6400679,30 30.4892012,27.1771429 30.4892012,23.2142857 C30.4892012,23.087619 30.4892012,22.9609524 30.4718285,22.8342857 L30.4718285,22.7619048 C30.4544557,22.4180952 30.1938643,22.1647619 29.8637817,22.1647619 L24.1307695,22.1647619 C23.800687,22.1647619 23.5227228,22.4542857 23.5227228,22.7980952 L23.5227228,24.0647619 C23.5227228,24.4085714 23.800687,24.6980952 24.1307695,24.6980952 L27.7616773,24.6980952 C27.2404943,26.4171429 25.8333004,27.412381 24.0265329,27.412381 C21.6464642,27.412381 20.0829155,25.6752381 20.0829155,23.2142857 C20.0829155,20.7714286 21.6464642,19.0161905 24.0265329,19.0161905 C25.5032179,19.0161905 26.5977021,19.6133333 27.3621037,20.807619 C27.4663403,20.9885714 27.6574407,21.0971429 27.8659138,21.0971429 L29.325226,21.0971429 C29.6726813,21.0971429 29.9332728,20.8257143 29.9332728,20.4819048 C29.9332728,19.9209524 29.1688712,18.9257143 28.6998065,18.4190476 C27.483713,17.0980952 25.9027915,16.4285714 24.0265329,16.4285714 C20.3261342,16.4285714 17.5638647,19.3780952 17.5638647,23.2142857 C17.5638647,27.0685714 20.3261342,30 24.0265329,30 Z M33.9637541,29.8914286 C34.2938366,29.8914286 34.5718008,29.6019048 34.5718008,29.2580952 L34.5718008,24.5352381 L40.0789671,24.5352381 L40.0789671,29.2580952 C40.0789671,29.6019048 40.3395586,29.8914286 40.6696411,29.8914286 L41.9899712,29.8914286 C42.3200537,29.8914286 42.5806452,29.6019048 42.5806452,29.2580952 L42.5806452,17.2428571 C42.5806452,16.8990476 42.3200537,16.6095238 41.9899712,16.6095238 L40.6696411,16.6095238 C40.3395586,16.6095238 40.0789671,16.8990476 40.0789671,17.2428571 L40.0789671,21.947619 L34.5718008,21.947619 L34.5718008,17.2428571 C34.5718008,16.8990476 34.2938366,16.6095238 33.9637541,16.6095238 L32.6607968,16.6095238 C32.3307143,16.6095238 32.05275,16.8990476 32.05275,17.2428571 L32.05275,29.2580952 C32.05275,29.6019048 32.3307143,29.8914286 32.6607968,29.8914286 L33.9637541,29.8914286 Z" id="high" fill="#001B38"></path>
                                <path d="M54.0147514,10.5766525 C54.2497563,10.7113498 54.3803145,10.6844103 54.3542029,10.5227736 C54.3280912,10.1186818 54.4847611,9.49907429 54.8764359,8.61007226 C55.2681107,7.72107023 55.7120088,6.83206819 56.2603535,5.9161267 C56.7825866,5.00018521 57.2264847,4.29975936 57.5920478,3.86872808 C57.6442711,3.78790971 57.6703828,3.70709134 57.6703828,3.62627298 C57.6703828,3.38381787 57.5398245,3.14136277 57.2525963,2.84502876 C56.9653681,2.54869475 56.6520283,2.30623965 56.3125768,2.11766346 C55.9731253,1.92908727 55.7120088,1.84826891 55.5553389,1.90214782 C55.3725573,1.95602673 55.0853292,2.38705802 54.6414311,3.19524169 C54.2236446,4.00342535 53.8319698,4.86548793 53.4925183,5.83530833 C53.1530668,6.77818928 52.9702853,7.53249404 52.9702853,8.04434369 C52.9702853,8.77170899 53.0747319,9.33743756 53.3097368,9.76846885 C53.5447416,10.1995001 53.7797465,10.4688947 54.0147514,10.5766525 Z M58.1142809,9.71458994 C58.4015091,9.93010558 58.3492857,9.79540831 58.3753974,9.66071103 C58.4537324,9.28355865 58.5320673,8.31373825 59.2631936,6.75124982 C59.6548684,5.86224779 60.0987665,4.97324575 60.6471112,4.05730426 C61.1693442,3.14136277 62.0049171,2.09072401 62.0571404,1.74051108 C62.1354754,1.39029816 61.9265822,1.25560088 61.639354,0.959266872 C61.3521258,0.66293286 61.038786,0.42047776 60.6993345,0.231901571 C60.359883,0.0433253814 60.0987665,-0.0374929854 59.9420966,0.0163859258 C59.759315,0.070264837 58.1142809,2.92584713 57.7748294,3.89566753 C56.077572,7.47861512 57.6181595,9.28355865 58.1142809,9.71458994 Z M61.8743589,12.5162933 C62.0310288,12.2199593 62.1093637,11.8428069 62.1093637,11.4387151 C62.1093637,11.1154416 62.0571404,10.899926 61.9788055,10.7652287 L61.9788055,10.7652287 C61.9526938,10.7113498 61.9265822,10.6844103 61.8743589,10.6574709 L61.8743589,10.6574709 C61.8221356,10.6305314 61.7438006,10.5766525 61.6654656,10.5497131 C61.7176889,10.4150158 61.7699123,10.2803185 61.8482472,10.1456212 C62.239922,9.25661919 62.6838201,8.36761716 63.2321648,7.45167567 C63.7543979,6.53573418 64.198296,5.83530833 64.5638591,5.40427704 C64.6160824,5.32345868 64.6421941,5.24264031 64.6421941,5.16182194 C64.6421941,4.91936684 64.5116358,4.67691174 64.2244076,4.38057773 C63.9371794,4.08424372 63.6238396,3.84178862 63.2843881,3.65321243 C63.0232716,3.51851515 62.8143784,3.43769679 62.6577084,3.43769679 C62.6054851,3.43769679 62.5532618,3.43769679 62.5271502,3.46463624 C62.3443686,3.51851515 62.0571404,3.94954644 61.6132423,4.75773011 C61.1954559,5.56591378 60.8037811,6.42797636 60.4643296,7.39779676 C60.438218,7.50555458 60.3859947,7.58637295 60.359883,7.69413077 C60.359883,7.72107023 60.3337714,7.74800968 60.3337714,7.77494914 C60.281548,7.96352533 60.2293247,8.12516206 60.1771014,8.31373825 C60.1771014,8.3406777 60.1509898,8.36761716 60.1509898,8.39455662 C60.1248781,8.47537498 60.0987665,8.55619335 60.0987665,8.63701172 C60.0987665,8.69089063 60.0726548,8.74476954 60.0726548,8.79864845 C60.0465432,8.90640627 60.0204315,9.01416409 60.0204315,9.12192192 C60.0204315,9.17580083 59.9943199,9.22967974 59.9943199,9.28355865 C59.9943199,9.33743756 59.9682082,9.36437702 59.9682082,9.41825593 L59.9682082,9.44519538 C59.9682082,9.49907429 59.9682082,9.57989266 59.9682082,9.63377157 C59.9682082,9.90316613 59.9943199,10.1725607 60.0204315,10.4150158 C59.8898733,10.4150158 59.759315,10.4150158 59.6548684,10.4150158 C58.9237421,10.4688947 58.0881692,10.5766525 57.1742614,10.7921682 C56.0253486,11.0615627 54.9286592,11.3848362 53.9103048,11.788928 C52.8919503,12.1930199 52.1347124,12.5971117 51.638591,13.0012035 C51.0119113,13.4861137 50.6985715,14.0518423 50.6985715,14.6445103 C50.6985715,14.8330865 50.7246831,14.9677838 50.7769064,15.1024811 C50.8291298,15.2371783 50.8813531,15.2910572 50.959688,15.3179967 C51.038023,15.3179967 51.0641346,15.2641178 51.0902463,15.15636 C51.1424696,14.9139049 51.4558094,14.6175709 52.0041541,14.2942974 C51.2730278,15.4257545 50.5157899,16.7457878 49.7063287,18.2543974 C49.4974355,18.6315497 49.3146539,18.9817627 49.1840956,19.2780967 C49.2624306,18.5237919 49.3668772,17.7156082 49.5235471,16.9074246 C49.7324403,15.6412702 49.9674452,14.6983892 50.1763384,14.0249028 C50.2024501,13.8902056 50.2024501,13.8093872 50.1763384,13.7285688 C50.0718918,13.4591743 49.8368869,13.2167192 49.3929889,13.028143 C48.9752024,12.8126273 48.5313043,12.6779301 48.0874062,12.5971117 C47.6435081,12.5162933 47.3301683,12.5432328 47.1734984,12.6779301 C46.9907168,12.8126273 46.8340469,13.4322348 46.677377,14.509813 C46.520707,15.5873913 46.4423721,16.7457878 46.4423721,17.9580634 C46.4423721,19.1703389 46.5468187,20.0593409 46.7557119,20.6520089 C47.0429401,21.4601926 47.3823916,22.0798001 47.800178,22.4569524 C48.557416,23.1304388 49.079649,23.1573783 49.5757704,22.8071654 C49.5757704,22.8071654 51.4296978,21.4601926 52.5786105,20.894464 C53.7536349,20.301796 54.7719893,20.005462 55.6597855,20.005462 C56.0514603,20.005462 56.4170234,20.0862803 56.7303633,20.2479171 C56.077572,21.2716164 55.1114408,22.3222552 53.8058582,23.3728939 C52.5002755,24.4235327 51.1946929,25.2855953 49.8629986,25.9860211 C48.5313043,26.6595075 47.5129499,27.0097204 46.7818236,27.0097204 C46.6512653,27.0097204 46.520707,26.982781 46.3901488,26.9558415 C46.2073672,26.9019626 46.1290323,26.982781 46.1290323,27.1713572 C46.1290323,27.4138123 46.2595905,27.7909646 46.4945954,28.2489354 C46.7296003,28.7069061 47.0429401,29.110998 47.4085032,29.4612109 C47.7740664,29.8114238 48.1396295,30 48.479081,30 C49.157984,30 50.1763384,29.5959082 51.5080327,28.7877245 C52.839727,27.9795408 54.119198,26.982781 55.320334,25.7974449 C56.5214701,24.6121089 57.3309313,23.4537123 57.7487177,22.3761341 C57.957611,21.8642844 58.0620576,21.2985558 58.0620576,20.6789484 C58.0620576,20.1670987 57.9837226,19.6552491 57.8531643,19.1972783 C57.7226061,18.7393076 57.5920478,18.469913 57.4876012,18.4160341 C57.3570429,18.2005185 57.2264847,18.0658212 57.0437031,17.9850028 C56.6520283,17.8233661 56.2081302,17.7425477 55.7381205,17.7425477 C54.9547709,17.7425477 54.119198,17.9311239 53.2052902,18.2813368 C52.2913823,18.6315497 51.4296978,19.062581 50.5941249,19.6013701 C51.1424696,18.469913 51.7169259,17.4192742 52.2913823,16.4494538 C52.8919503,15.452694 53.3880717,14.7522681 53.8319698,14.2942974 C53.8841931,14.2404185 53.9103048,14.1596001 53.9103048,14.0787817 C53.9103048,13.8902056 53.8058582,13.7285688 53.6230766,13.5938715 C54.5369844,13.2705981 55.5292272,13.0012035 56.5736934,12.7856879 C57.6442711,12.5701722 58.5842906,12.4624144 59.3937519,12.4624144 C60.3076597,12.4624144 60.9343394,12.5971117 61.3260142,12.8395668 C61.561019,12.9203852 61.7438006,12.8395668 61.8743589,12.5162933 Z M65.6083252,9.44519538 C65.3472087,9.17580083 65.0599805,8.96028518 64.720529,8.79864845 C64.3810775,8.63701172 64.1721843,8.55619335 64.0155144,8.61007226 C63.8588445,8.66395117 63.5716163,9.04110355 63.1538299,9.76846885 C62.7621551,10.4958342 62.3965919,11.2770784 62.0571404,12.1391409 C61.7176889,13.0012035 61.5871307,13.6477505 61.5871307,14.1326607 C61.5871307,14.7792076 61.6915773,15.2910572 61.9004705,15.6951491 C62.1093637,16.0723015 62.318257,16.3147566 62.5532618,16.4494538 C62.7882667,16.5572117 62.8927133,16.5572117 62.8666017,16.3955749 C62.84049,16.045362 62.9971599,15.452694 63.3627231,14.6714498 C63.7282862,13.8902056 64.1460727,13.0820219 64.6683057,12.2468988 C65.1644271,11.4117756 65.5822136,10.7921682 65.921665,10.3880763 C65.9738883,10.307258 66,10.2264396 66,10.1725607 C66,9.93010558 65.8694417,9.68765048 65.6083252,9.44519538 Z" id="Shape" fill="#FF5F57"></path>
                            </g>
                        </g>
                    </g>
                </g>
            </g>
        </g>
    </g>
</svg>